<?xml version="1.0" encoding="UTF-8" standalone="no"?>
<!-- Creator: CorelDRAW -->

<svg
   xmlns:dc="http://purl.org/dc/elements/1.1/"
   xmlns:cc="http://creativecommons.org/ns#"
   xmlns:rdf="http://www.w3.org/1999/02/22-rdf-syntax-ns#"
   xmlns:svg="http://www.w3.org/2000/svg"
   xmlns="http://www.w3.org/2000/svg"
   xmlns:sodipodi="http://sodipodi.sourceforge.net/DTD/sodipodi-0.dtd"
   xmlns:inkscape="http://www.inkscape.org/namespaces/inkscape"
   style="fill-rule:evenodd;text-rendering:geometricPrecision;image-rendering:optimizeQuality;clip-rule:evenodd;shape-rendering:geometricPrecision"
   xml:space="preserve"
   viewBox="0 0 4.24062 2.83148"
   id="svg2"
   version="1.1"
   inkscape:version="0.91 r13725"
   sodipodi:docname="memshare-logo.svg"><sodipodi:namedview
     pagecolor="#ffffff"
     bordercolor="#666666"
     borderopacity="1"
     objecttolerance="10"
     gridtolerance="10"
     guidetolerance="10"
     inkscape:pageopacity="0"
     inkscape:pageshadow="2"
     inkscape:window-width="1189"
     inkscape:window-height="725"
     id="namedview38"
     showgrid="false"
     inkscape:zoom="92.966506"
     inkscape:cx="2.2598427"
     inkscape:cy="1.3058182"
     inkscape:window-x="43"
     inkscape:window-y="0"
     inkscape:window-maximized="0"
     inkscape:current-layer="_46320264" /><defs
     id="defs4"><style
       type="text/css"
       id="style6">
    .str0 {stroke:#4D4948;stroke-width:0.0123919}
    .str1 {stroke:#838281;stroke-width:0.229479;stroke-linecap:round}
    .fil2 {fill:none}
    .fil0 {fill:#4D4948}
    .fil1 {fill:white;fill-rule:nonzero}
  </style></defs><g
     id="Diagram"><g
       id="_46320264"><path
         id="_89705936"
         d="m0.33144 0.44006l3.5777-0.00006505c0.17915 0 0.32525 0.1461 0.32525 0.32525v1.301c0 0.17915-0.1461 0.32531-0.32525 0.32531l-3.5777-0.00006505c-0.17915 0-0.32525-0.1461-0.32525-0.32525v-1.301c0-0.17915 0.1461-0.32518 0.32525-0.32518z"
         class="fil0 str0" /><line
         id="_89838728"
         y2=".11475"
         class="fil2 str1"
         x2=".65669"
         y1="0.44"
         x1=".65669" /><line
         id="_90529672"
         y2=".11475"
         class="fil2 str1"
         x2=".9822"
         y1="0.44"
         x1=".9822" /><line
         id="_88873184"
         y2=".11475"
         class="fil2 str1"
         x2="1.6324"
         y1="0.44"
         x1="1.6324" /><line
         id="_89047400"
         y2=".11475"
         class="fil2 str1"
         x2="1.3074"
         y1="0.44"
         x1="1.3074" /><line
         id="_48795480"
         y2=".11475"
         class="fil2 str1"
         x2="1.9579"
         y1="0.44"
         x1="1.9579" /><line
         id="_87697416"
         y2=".11475"
         class="fil2 str1"
         x2="2.2832"
         y1="0.44"
         x1="2.2832" /><line
         id="_87460568"
         y2=".11475"
         class="fil2 str1"
         x2=".33157"
         y1="0.44"
         x1=".33157" /><line
         id="_88111800"
         y2=".11475"
         class="fil2 str1"
         x2="2.6114"
         y1="0.44"
         x1="2.6114" /><line
         id="_89779384"
         y2=".11475"
         class="fil2 str1"
         x2="2.9369"
         y1="0.44"
         x1="2.9369" /><line
         id="_91195720"
         y2=".11475"
         class="fil2 str1"
         x2="3.2588"
         y1="0.44"
         x1="3.2588" /><line
         id="_89709768"
         y2=".11475"
         class="fil2 str1"
         x2="3.584"
         y1="0.44"
         x1="3.584" /><line
         id="_48343384"
         y2=".11475"
         class="fil2 str1"
         x2="3.9093"
         y1="0.44"
         x1="3.9093" /><line
         id="_88726520"
         y2="2.3915"
         class="fil2 str1"
         x2=".65643"
         y1="2.7167"
         x1=".65643" /><line
         id="_89863896"
         y2="2.3915"
         class="fil2 str1"
         x2=".98194"
         y1="2.7167"
         x1=".98194" /><line
         id="_89052328"
         y2="2.3915"
         class="fil2 str1"
         x2="1.6322"
         y1="2.7167"
         x1="1.6322" /><line
         id="_90525016"
         y2="2.3915"
         class="fil2 str1"
         x2="1.3072"
         y1="2.7167"
         x1="1.3072" /><line
         id="_88786464"
         y2="2.3915"
         class="fil2 str1"
         x2="1.9577"
         y1="2.7167"
         x1="1.9577" /><line
         id="_48928224"
         y2="2.3915"
         class="fil2 str1"
         x2="2.2829"
         y1="2.7167"
         x1="2.2829" /><line
         id="_90405880"
         y2="2.3915"
         class="fil2 str1"
         x2=".33131"
         y1="2.7167"
         x1=".33131" /><line
         id="_88963376"
         y2="2.3915"
         class="fil2 str1"
         x2="2.6112"
         y1="2.7167"
         x1="2.6112" /><line
         id="_90071336"
         y2="2.3915"
         class="fil2 str1"
         x2="2.9367"
         y1="2.7167"
         x1="2.9367" /><line
         id="_87188792"
         y2="2.3915"
         class="fil2 str1"
         x2="3.2586"
         y1="2.7167"
         x1="3.2586" /><line
         id="_89604440"
         y2="2.3915"
         class="fil2 str1"
         x2="3.5838"
         y1="2.7167"
         x1="3.5838" /><line
         id="_89011904"
         y2="2.3915"
         class="fil2 str1"
         x2="3.909"
         y1="2.7167"
         x1="3.909" /><path
         style="fill:#5f8dd3;fill-opacity:1"
         d="M 4.6678928,3.6017998 C 4.5019095,3.584284 4.3408578,3.5042874 4.2226547,3.3806439 4.117803,3.2709713 4.0524353,3.1399343 4.0291148,2.992692 c -0.011232,-0.070493 -0.0081,-0.203239 0.00623,-0.2681983 0.00515,-0.023065 0.00967,-0.043978 0.010136,-0.04648 C 4.0459781,2.6755205 3.735059,2.4936359 3.3545391,2.2738383 L 2.6626849,1.8742058 2.6253949,1.9058407 C 2.5273737,1.9889967 2.4068626,2.0453607 2.2795386,2.0676016 2.2138167,2.0790799 2.0976913,2.0791292 2.0318341,2.0677051 1.7708059,2.0224159 1.5487863,1.8329676 1.4661901,1.5850453 1.4375872,1.4991753 1.4299295,1.4499888 1.4299295,1.3518226 c 0,-0.098166 0.00764,-0.1473523 0.036245,-0.2332226 0.082596,-0.24793129 0.2942133,-0.43142191 0.5574343,-0.48335201 0.066127,-0.013053 0.2049202,-0.012883 0.2670981,3.135e-4 0.1391472,0.029532 0.2619171,0.091642 0.3539724,0.1790663 0.040643,0.0386 0.040939,0.038755 0.055912,0.029959 0.00826,-0.00486 0.3144694,-0.1816402 0.6804225,-0.39283664 0.3659516,-0.21119642 0.6675825,-0.38614175 0.6702896,-0.38876729 0.00281,-0.002738 -9.19e-5,-0.0246213 -0.00686,-0.0512918 -0.020445,-0.0809207 -0.02483,-0.12523393 -0.021522,-0.21705349 0.00326,-0.0915141 0.012168,-0.13937074 0.040503,-0.21806173 0.084826,-0.23586747 0.2847731,-0.41000557 0.5336707,-0.46480147 0.069667,-0.0153371 0.2043667,-0.0180836 0.2739758,-0.005588 0.097117,0.0174336 0.2026372,0.0608066 0.2896703,0.11905796 0.055194,0.0369462 0.147725,0.12946791 0.1846685,0.18466921 0.1005311,0.1502001 0.1442941,0.32416427 0.1244403,0.49459372 C 5.440515,0.15636546 5.2927141,0.36506106 5.0641925,0.4773228 4.9675135,0.5248147 4.8892976,0.5441292 4.7780066,0.5479898 4.6834446,0.5512648 4.6263477,0.5452298 4.5511081,0.5239853 4.4401709,0.49263228 4.333934,0.432562 4.2477447,0.35238932 L 4.2030164,0.31078052 3.5236699,0.70312549 C 2.9072438,1.0591323 2.8443904,1.0967259 2.8450439,1.1090248 c 3.976e-4,0.00746 0.00764,0.038716 0.015971,0.069467 0.012477,0.045693 0.015784,0.071782 0.018153,0.142733 0.00344,0.1032812 -0.00592,0.1743232 -0.033921,0.2582877 l -0.018387,0.055056 0.017124,0.010382 c 0.022724,0.013771 1.3108504,0.7571169 1.3263855,0.7654201 0.010924,0.00585 0.01594,0.00246 0.05312,-0.03588 0.096554,-0.099599 0.2132953,-0.1676545 0.343729,-0.2003946 0.2037583,-0.051145 0.4093427,-0.015941 0.5833251,0.099883 0.1722762,0.1146881 0.2843427,0.2927506 0.3169725,0.5036359 0.010764,0.069678 0.00702,0.17965 -0.00858,0.2516098 -0.067452,0.3104096 -0.3212472,0.5385684 -0.6368426,0.5725144 -0.06385,0.00686 -0.089568,0.00688 -0.1541503,6.4e-5 z"
         id="path4923"
         inkscape:connector-curvature="0" /></g></g><metadata
     id="metadata36"><rdf:RDF><cc:Work><dc:format>image/svg+xml</dc:format><dc:type
           rdf:resource="http://purl.org/dc/dcmitype/StillImage" /><cc:license
           rdf:resource="http://creativecommons.org/licenses/publicdomain/" /><dc:publisher><cc:Agent
             rdf:about="http://openclipart.org/"><dc:title>Openclipart</dc:title></cc:Agent></dc:publisher><dc:title></dc:title><dc:date>2010-12-15T19:46:59</dc:date><dc:description>RAM chip (stylized)</dc:description><dc:source>https://openclipart.org/detail/100861/ram-chip-by-pgbrandolin</dc:source><dc:creator><cc:Agent><dc:title>pgbrandolin</dc:title></cc:Agent></dc:creator><dc:subject><rdf:Bag><rdf:li>RAM</rdf:li><rdf:li>chip</rdf:li><rdf:li>computer</rdf:li><rdf:li>hardware</rdf:li></rdf:Bag></dc:subject></cc:Work><cc:License
         rdf:about="http://creativecommons.org/licenses/publicdomain/"><cc:permits
           rdf:resource="http://creativecommons.org/ns#Reproduction" /><cc:permits
           rdf:resource="http://creativecommons.org/ns#Distribution" /><cc:permits
           rdf:resource="http://creativecommons.org/ns#DerivativeWorks" /></cc:License></rdf:RDF></metadata></svg>